<svg aria-hidden="true" style="position: absolute; width: 0; height: 0; overflow: hidden;" version="1.1" xmlns="http://www.w3.org/2000/svg" xmlns:xlink="http://www.w3.org/1999/xlink">
<defs>
<symbol id="icon-person" viewBox="0 0 40 40">
<path fill-rule="evenodd"  d="M5.243 34.908c1.44.431 8.84 2.615 12.038 2.937 2.41.242 4.857.195 7.28-.142 4.814-.669 8.41-1.54 10.395-2.52.49-.242.48-.33.462-.528-.018-.19.015-.346.032-.42l.044-.48c.112-1.155.218-2.245.002-3.305-.28-1.39-.917-2.112-2.125-2.412-.9-.222-1.833-.557-2.777-.995-.189-.078-.983-.228-1.508-.327-1.069-.203-1.742-.336-2.126-.529-.139-.07-.284-.13-.429-.19-.44-.184-.987-.413-1.439-.876-.46-.473-.69-1.06-.84-1.519-.367-1.128-.524-2.305-.464-3.499l.007-.137c.024-.54.055-1.212.307-1.796.127-.295.311-.526.458-.712.078-.099.16-.2.19-.262.232-.468.426-.995.575-1.567.065-.247.191-.489.377-.718.083-.104.178-.202.273-.298.05-.05.104-.096.142-.152.396-.724.643-1.568.751-2.572.01-.09.012-.154.012-.197-.04-.02-.106-.048-.204-.082-.502-.174-.78-.709-.634-1.22.374-1.309.478-2.639.308-3.953-.127-.992-.384-1.509-.89-1.783-.587-.32-.995-.71-1.43-1.15-1.28-1.29-2.875-1.753-4.737-1.378-1.608.323-2.936 1.287-4.18 3.034-.75 1.051-1.038 2.238-.88 3.628.044.387.121.771.197 1.157l.112.578c.094.522-.236 1.027-.75 1.15-.024.005-.043.011-.06.016-.003.026-.004.058-.005.095-.002.068-.004.132.005.195.126.971.345 1.72.686 2.352.036.067.141.18.234.28.097.103.193.208.28.317.175.221.291.451.345.687.208.953.608 1.821 1.191 2.591.385.512.455 1.23.501 2.047.005.117.011.223.02.31.165 1.745-.06 3.02-.695 3.896-.616.854-1.6 1.301-2.469 1.697-.258.117-.508.23-.73.35-1.015.545-2.937.946-4.633 1.301-.65.137-1.235.258-1.642.366-.48.128-.87.42-1.189.895-.434.648-.64 1.428-.63 2.383.007.713.07 1.425.137 2.18.04.425.078.851.105 1.277m15.075 5.09c-1.083 0-2.164-.055-3.238-.163-3.726-.376-12.3-2.976-12.663-3.087-.11-.033-.215-.086-.307-.155-.189-.14-.808-.659-.853-1.408-.028-.459-.069-.918-.11-1.376-.068-.759-.139-1.545-.147-2.339-.013-1.352.313-2.535.97-3.515.592-.884 1.38-1.46 2.338-1.716.432-.114 1.053-.245 1.745-.389 1.407-.295 3.335-.698 4.093-1.106.261-.139.551-.273.85-.409.674-.306 1.37-.623 1.677-1.047.186-.259.477-.932.325-2.536-.01-.109-.019-.242-.027-.388-.013-.246-.046-.825-.125-.992-.712-.936-1.225-2.032-1.499-3.22-.05-.064-.105-.12-.159-.178-.167-.179-.374-.402-.53-.695-.46-.853-.75-1.82-.909-3.042-.022-.165-.026-.333-.022-.499.017-.749.24-1.273.7-1.618-.072-.367-.139-.735-.18-1.105-.214-1.878.203-3.565 1.237-5.016C15.02 1.843 16.792.59 18.898.165c2.53-.508 4.794.16 6.551 1.931.346.35.618.611.967.801 1.442.784 1.786 2.25 1.92 3.285.168 1.32.11 2.65-.173 3.965.571.437.79 1.066.693 1.955-.136 1.272-.46 2.36-.989 3.326-.143.261-.325.445-.472.593-.047.047-.094.093-.135.143-.184.675-.425 1.331-.719 1.922-.124.25-.284.452-.413.614-.07.09-.167.21-.19.263-.107.248-.13.737-.145 1.094l-.007.145c-.048.95.076 1.886.367 2.781.082.252.2.566.371.742.166.171.45.29.78.427.186.078.374.158.554.248.197.085 1.074.251 1.6.35.99.187 1.614.311 1.977.48.828.383 1.641.675 2.416.867 1.96.486 3.173 1.817 3.606 3.956.274 1.352.15 2.644.028 3.894l-.049.516c-.002.025-.01.076-.018.122.086 1.572-1.16 2.186-1.578 2.391-2.748 1.356-7.5 2.221-11.003 2.708-1.5.21-3.012.313-4.519.313"></path>
</symbol>
<symbol id="icon-person" viewBox="0 0 40 40">
<path fill-rule="evenodd"  d="M5.243 34.908c1.44.431 8.84 2.615 12.038 2.937 2.41.242 4.857.195 7.28-.142 4.814-.669 8.41-1.54 10.395-2.52.49-.242.48-.33.462-.528-.018-.19.015-.346.032-.42l.044-.48c.112-1.155.218-2.245.002-3.305-.28-1.39-.917-2.112-2.125-2.412-.9-.222-1.833-.557-2.777-.995-.189-.078-.983-.228-1.508-.327-1.069-.203-1.742-.336-2.126-.529-.139-.07-.284-.13-.429-.19-.44-.184-.987-.413-1.439-.876-.46-.473-.69-1.06-.84-1.519-.367-1.128-.524-2.305-.464-3.499l.007-.137c.024-.54.055-1.212.307-1.796.127-.295.311-.526.458-.712.078-.099.16-.2.19-.262.232-.468.426-.995.575-1.567.065-.247.191-.489.377-.718.083-.104.178-.202.273-.298.05-.05.104-.096.142-.152.396-.724.643-1.568.751-2.572.01-.09.012-.154.012-.197-.04-.02-.106-.048-.204-.082-.502-.174-.78-.709-.634-1.22.374-1.309.478-2.639.308-3.953-.127-.992-.384-1.509-.89-1.783-.587-.32-.995-.71-1.43-1.15-1.28-1.29-2.875-1.753-4.737-1.378-1.608.323-2.936 1.287-4.18 3.034-.75 1.051-1.038 2.238-.88 3.628.044.387.121.771.197 1.157l.112.578c.094.522-.236 1.027-.75 1.15-.024.005-.043.011-.06.016-.003.026-.004.058-.005.095-.002.068-.004.132.005.195.126.971.345 1.72.686 2.352.036.067.141.18.234.28.097.103.193.208.28.317.175.221.291.451.345.687.208.953.608 1.821 1.191 2.591.385.512.455 1.23.501 2.047.005.117.011.223.02.31.165 1.745-.06 3.02-.695 3.896-.616.854-1.6 1.301-2.469 1.697-.258.117-.508.23-.73.35-1.015.545-2.937.946-4.633 1.301-.65.137-1.235.258-1.642.366-.48.128-.87.42-1.189.895-.434.648-.64 1.428-.63 2.383.007.713.07 1.425.137 2.18.04.425.078.851.105 1.277m15.075 5.09c-1.083 0-2.164-.055-3.238-.163-3.726-.376-12.3-2.976-12.663-3.087-.11-.033-.215-.086-.307-.155-.189-.14-.808-.659-.853-1.408-.028-.459-.069-.918-.11-1.376-.068-.759-.139-1.545-.147-2.339-.013-1.352.313-2.535.97-3.515.592-.884 1.38-1.46 2.338-1.716.432-.114 1.053-.245 1.745-.389 1.407-.295 3.335-.698 4.093-1.106.261-.139.551-.273.85-.409.674-.306 1.37-.623 1.677-1.047.186-.259.477-.932.325-2.536-.01-.109-.019-.242-.027-.388-.013-.246-.046-.825-.125-.992-.712-.936-1.225-2.032-1.499-3.22-.05-.064-.105-.12-.159-.178-.167-.179-.374-.402-.53-.695-.46-.853-.75-1.82-.909-3.042-.022-.165-.026-.333-.022-.499.017-.749.24-1.273.7-1.618-.072-.367-.139-.735-.18-1.105-.214-1.878.203-3.565 1.237-5.016C15.02 1.843 16.792.59 18.898.165c2.53-.508 4.794.16 6.551 1.931.346.35.618.611.967.801 1.442.784 1.786 2.25 1.92 3.285.168 1.32.11 2.65-.173 3.965.571.437.79 1.066.693 1.955-.136 1.272-.46 2.36-.989 3.326-.143.261-.325.445-.472.593-.047.047-.094.093-.135.143-.184.675-.425 1.331-.719 1.922-.124.25-.284.452-.413.614-.07.09-.167.21-.19.263-.107.248-.13.737-.145 1.094l-.007.145c-.048.95.076 1.886.367 2.781.082.252.2.566.371.742.166.171.45.29.78.427.186.078.374.158.554.248.197.085 1.074.251 1.6.35.99.187 1.614.311 1.977.48.828.383 1.641.675 2.416.867 1.96.486 3.173 1.817 3.606 3.956.274 1.352.15 2.644.028 3.894l-.049.516c-.002.025-.01.076-.018.122.086 1.572-1.16 2.186-1.578 2.391-2.748 1.356-7.5 2.221-11.003 2.708-1.5.21-3.012.313-4.519.313"></path>
</symbol>

<symbol id="icon-shopping-cart" viewBox="0 0 40 40">
<path fill-rule="evenodd"  d="M11.774 29.769c2.419 0 4.387 1.968 4.387 4.387 0 2.419-1.968 4.387-4.387 4.387-2.419 0-4.388-1.968-4.388-4.387 0-2.42 1.969-4.387 4.388-4.387zm20.839 0c2.419 0 4.387 1.968 4.387 4.387 0 2.419-1.968 4.387-4.387 4.387-2.42 0-4.388-1.968-4.388-4.387 0-2.42 1.969-4.387 4.388-4.387zm-20.839 2c-1.316 0-2.388 1.07-2.388 2.387 0 1.316 1.072 2.387 2.388 2.387 1.316 0 2.387-1.071 2.387-2.387 0-1.317-1.071-2.387-2.387-2.387zm20.839 0c-1.316 0-2.388 1.07-2.388 2.387 0 1.316 1.072 2.387 2.388 2.387 1.316 0 2.387-1.071 2.387-2.387 0-1.317-1.071-2.387-2.387-2.387zM4.207 1c.463 0 .865.318.972.768l1.605 6.714H36.23c1.121 0 2.176.494 2.894 1.355.717.86 1.014 1.986.813 3.088l-1.982 11.909c-.328 1.807-1.888 3.109-3.71 3.109H12.353c-1.731 0-3.235-1.174-3.655-2.854L3.418 3H1c-.553 0-1-.447-1-1 0-.552.447-1 1-1zm33.3 14.345H8.424l2.216 9.269c.196.778.901 1.329 1.713 1.329h21.892c.855 0 1.587-.611 1.74-1.452l1.522-9.146zm-1.277-4.863H7.262l.685 2.863H37.84l.127-.763c.097-.532-.042-1.061-.378-1.464-.337-.404-.833-.636-1.359-.636z"></path>
</symbol>




<symbol id="icon-language" viewBox="0 0 40 40">
<path fill-rule="evenodd"  d="M23.54,35.03 C24.348,33.827 25.017,32.255 25.54,30.454 L31.284,30.454 C29.231,32.665 26.56,34.281 23.54,35.03 L23.54,35.03 Z M8.224,30.454 L13.969,30.454 C14.492,32.255 15.161,33.827 15.969,35.03 C12.949,34.281 10.276,32.665 8.224,30.454 L8.224,30.454 Z M15.969,4.479 C15.161,5.682 14.492,7.254 13.969,9.055 L8.224,9.055 C10.276,6.844 12.949,5.228 15.969,4.479 L15.969,4.479 Z M31.284,9.055 L25.54,9.055 C25.017,7.254 24.348,5.682 23.54,4.479 C26.56,5.228 29.231,6.844 31.284,9.055 L31.284,9.055 Z M26.909,18.755 C26.85,16.108 26.555,13.454 26.036,11.055 L32.877,11.055 C34.362,13.288 35.279,15.922 35.458,18.755 L26.909,18.755 Z M23.988,11.055 C24.504,13.26 24.843,15.878 24.908,18.755 L14.601,18.755 C14.666,15.878 15.005,13.26 15.52,11.055 L23.988,11.055 Z M19.754,4 C21.052,4 22.428,5.917 23.436,9.055 L16.073,9.055 C17.08,5.917 18.456,4 19.754,4 L19.754,4 Z M6.633,11.054 C6.634,11.054 6.636,11.055 6.638,11.055 L13.473,11.055 C12.954,13.454 12.659,16.108 12.601,18.755 L4.051,18.755 C4.229,15.922 5.146,13.287 6.633,11.054 L6.633,11.054 Z M6.633,28.455 C5.146,26.222 4.229,23.588 4.051,20.755 L12.601,20.755 C12.659,23.402 12.954,26.055 13.473,28.454 L6.638,28.454 C6.636,28.454 6.634,28.455 6.633,28.455 L6.633,28.455 Z M15.52,28.454 C15.005,26.249 14.666,23.632 14.601,20.755 L24.908,20.755 C24.843,23.632 24.504,26.249 23.988,28.454 L15.52,28.454 Z M19.754,35.509 C18.456,35.509 17.08,33.593 16.073,30.454 L23.436,30.454 C22.428,33.593 21.052,35.509 19.754,35.509 L19.754,35.509 Z M32.877,28.454 L26.036,28.454 C26.555,26.055 26.85,23.402 26.909,20.755 L35.458,20.755 C35.279,23.588 34.362,26.221 32.877,28.454 L32.877,28.454 Z M19.754,2 C9.965,2 2,9.965 2,19.755 C2,29.545 9.965,37.509 19.754,37.509 C29.544,37.509 37.509,29.545 37.509,19.755 C37.509,9.965 29.544,2 19.754,2 L19.754,2 Z"></path>
</symbol>
<symbol id="icon-currency" viewBox="0 0 20 20">
<path fill-rule="evenodd"  d="M10 0c5.514 0 10 4.486 10 10s-4.486 10-10 10S0 15.514 0 10 4.486 0 10 0zm0 1c-4.963 0-9 4.037-9 9s4.037 9 9 9 9-4.037 9-9-4.037-9-9-9zm.044 1.904c.298 0 .54.242.54.54v1.154c.472.057.885.154 1.229.302.37.16.691.4.966.724.217.246.385.5.503.76s.177.5.177.717c0 .24-.087.45-.264.626-.175.176-.39.264-.64.264-.473 0-.78-.256-.92-.767-.15-.567-.505-.948-1.05-1.157v2.994c.55.153.996.293 1.33.42.354.136.671.331.951.587.3.265.53.583.691.952.162.369.243.773.243 1.212 0 .55-.13 1.065-.387 1.545-.259.48-.639.872-1.14 1.176-.477.29-1.042.463-1.689.53v.886c0 .16-.072.299-.182.398v.002c-.056.13-.177.196-.366.196-.132 0-.224-.04-.297-.103-.19-.083-.323-.272-.323-.493v-.886c-.5-.069-.948-.187-1.33-.37-.422-.203-.774-.455-1.057-.757-.282-.301-.49-.615-.626-.94-.135-.326-.203-.646-.203-.96 0-.231.091-.44.272-.626.18-.185.406-.278.676-.278.217 0 .4.05.55.152.15.1.254.243.312.427.13.395.243.698.34.908.096.21.242.402.438.575.162.144.378.253.628.34v-3.351c-.58-.168-1.072-.351-1.472-.553-.434-.22-.786-.532-1.056-.937-.27-.406-.406-.927-.406-1.564 0-.83.265-1.51.793-2.041.5-.502 1.219-.799 2.14-.903v-1.16c0-.3.243-.541.541-.541zm.54 8.046v3.109c.437-.103.784-.287 1.03-.56.265-.295.398-.637.398-1.028 0-.42-.13-.744-.387-.973-.24-.214-.59-.395-1.04-.548zM9.416 6.044c-.333.114-.601.255-.798.427-.227.198-.34.497-.34.897 0 .381.106.67.318.865.186.172.463.328.82.472z"></path>
</symbol>
<symbol id="icon-search" viewBox="0 0 40 40">
<path fill-rule="evenodd"  d="M16.738 30.477C9.163 30.477 3 24.314 3 16.739 3 9.164 9.163 3 16.738 3c7.575 0 13.738 6.164 13.738 13.739 0 7.575-6.163 13.738-13.738 13.738m22.969 7.816L28.591 27.177c-.02-.019-.046-.026-.067-.044 2.451-2.776 3.952-6.409 3.952-10.394C32.476 8.06 25.416 1 16.738 1S1 8.06 1 16.739c0 8.678 7.06 15.738 15.738 15.738 3.985 0 7.618-1.501 10.395-3.952.017.02.024.047.043.066l11.117 11.116c.195.196.451.293.707.293.256 0 .511-.097.707-.293.39-.39.39-1.023 0-1.414"></path>
</symbol>
<symbol id="icon-message" viewBox="0 0 40 40">
<path fill-rule="evenodd"  d="M19.724 5C9.952 5 2 10.88 2 18.108c0 3.85 2.292 7.495 6.288 10.001.426.266.587.808.378 1.264-.771 1.682-2.213 4.088-3.264 5.776 2.258-.567 5.865-1.777 9.06-4.189.227-.171.518-.238.792-.184 1.51.293 3.015.441 4.47.441 9.772 0 17.724-5.881 17.724-13.109S29.496 5 19.724 5M3.298 37.593c-.343 0-.665-.176-.85-.472-.204-.33-.2-.75.013-1.075.03-.044 2.627-4.023 4.013-6.738C2.348 26.446 0 22.407 0 18.108 0 9.778 8.848 3 19.724 3s19.724 6.778 19.724 15.108c0 8.331-8.848 15.109-19.724 15.109-1.441 0-2.925-.134-4.414-.396-5.448 3.946-11.626 4.733-11.892 4.765-.04.005-.08.007-.12.007"></path>
</symbol>


<symbol id="icon-applemusic" viewBox="0 0 32 32">
<path d="M31.996 8.165c0-0.984-0.087-1.96-0.32-2.92-0.423-1.747-1.416-3.080-2.907-4.057-0.765-0.499-1.605-0.808-2.503-0.969-0.689-0.124-1.384-0.18-2.085-0.2-0.053-0.004-0.111-0.013-0.165-0.017h-16.032c-0.203 0.013-0.404 0.023-0.607 0.035-0.996 0.057-1.987 0.164-2.924 0.535-1.781 0.707-3.067 1.936-3.82 3.707-0.256 0.597-0.389 1.233-0.484 1.877-0.075 0.523-0.117 1.047-0.133 1.573 0 0.043-0.009 0.083-0.013 0.124v16.297c0.013 0.187 0.023 0.377 0.036 0.565 0.067 1.087 0.205 2.165 0.663 3.164 0.867 1.893 2.317 3.137 4.312 3.736 0.56 0.169 1.141 0.249 1.724 0.304 0.74 0.071 1.48 0.080 2.223 0.080h14.707c0.7 0 1.397-0.045 2.093-0.133 1.097-0.141 2.129-0.467 3.061-1.080 1.12-0.737 1.963-1.716 2.507-2.944 0.248-0.56 0.391-1.16 0.493-1.765 0.151-0.9 0.184-1.811 0.183-2.72-0.003-5.067 0-10.127-0.008-15.191zM23.432 13.485v7.616c0 0.556-0.077 1.103-0.325 1.608-0.387 0.787-1.013 1.283-1.851 1.52-0.467 0.133-0.941 0.209-1.427 0.231-1.267 0.060-2.364-0.8-2.591-2.048-0.189-1.031 0.303-2.165 1.384-2.696 0.431-0.213 0.893-0.333 1.357-0.432 0.504-0.109 1.011-0.204 1.512-0.32 0.365-0.084 0.609-0.307 0.68-0.688 0.019-0.084 0.027-0.173 0.027-0.257 0-2.42 0-4.84-0.003-7.257 0-0.083-0.013-0.167-0.035-0.247-0.053-0.2-0.2-0.324-0.405-0.312-0.213 0.013-0.424 0.047-0.633 0.088-1.013 0.2-2.027 0.404-3.040 0.608l-4.933 0.997c-0.021 0.004-0.043 0.013-0.064 0.017-0.369 0.103-0.503 0.271-0.52 0.653-0.003 0.056 0 0.115 0 0.173-0.003 3.469 0 6.939-0.004 10.407 0 0.56-0.063 1.115-0.287 1.636-0.371 0.853-1.027 1.387-1.912 1.644-0.467 0.133-0.947 0.213-1.433 0.229-1.28 0.048-2.34-0.8-2.56-2.059-0.187-1.083 0.307-2.247 1.539-2.767 0.476-0.2 0.973-0.309 1.477-0.413 0.383-0.080 0.767-0.155 1.147-0.236 0.511-0.111 0.777-0.431 0.8-0.952v-0.2c0-3.947 0-7.896 0.003-11.843 0-0.164 0.017-0.333 0.056-0.493 0.093-0.38 0.364-0.597 0.728-0.691 0.34-0.088 0.687-0.149 1.032-0.22 0.977-0.2 1.955-0.395 2.933-0.592l3.027-0.613c0.893-0.179 1.787-0.36 2.68-0.537 0.293-0.057 0.591-0.117 0.885-0.141 0.413-0.033 0.697 0.227 0.739 0.643 0.011 0.097 0.016 0.197 0.016 0.297 0.003 2.547 0.003 5.096 0.001 7.647z"></path>
</symbol>
<symbol id="icon-applepay" viewBox="0 0 32 32">
<path d="M5.851 11.045c-0.376 0.449-0.976 0.803-1.576 0.752-0.075-0.607 0.219-1.251 0.563-1.649 0.376-0.461 1.032-0.788 1.563-0.815 0.063 0.632-0.181 1.251-0.549 1.712zM6.393 11.917c-0.868-0.051-1.613 0.5-2.024 0.5-0.42 0-1.051-0.475-1.739-0.461-0.893 0.013-1.724 0.524-2.18 1.34-0.939 1.629-0.244 4.044 0.661 5.371 0.444 0.657 0.976 1.377 1.676 1.352 0.661-0.025 0.924-0.436 1.724-0.436 0.807 0 1.037 0.436 1.739 0.424 0.724-0.013 1.18-0.657 1.624-1.315 0.507-0.747 0.713-1.472 0.725-1.511-0.013-0.013-1.4-0.549-1.413-2.167-0.012-1.353 1.093-1.997 1.144-2.035-0.624-0.936-1.6-1.037-1.937-1.063zM11.413 10.085v9.852h1.513v-3.368h2.093c1.912 0 3.256-1.328 3.256-3.248 0-1.921-1.319-3.236-3.205-3.236zM12.927 11.375h1.744c1.312 0 2.061 0.707 2.061 1.952s-0.749 1.96-2.068 1.96h-1.739zM21.039 20.012c0.951 0 1.832-0.485 2.232-1.257h0.031v1.183h1.4v-4.904c0-1.421-1.125-2.339-2.856-2.339-1.607 0-2.793 0.929-2.837 2.205h1.363c0.112-0.607 0.668-1.004 1.431-1.004 0.925 0 1.444 0.436 1.444 1.239v0.543l-1.888 0.115c-1.756 0.107-2.707 0.833-2.707 2.097 0 1.276 0.981 2.123 2.388 2.123zM21.445 18.844c-0.807 0-1.32-0.392-1.32-0.992 0-0.62 0.495-0.98 1.439-1.037l1.68-0.107v0.556c0 0.923-0.773 1.58-1.799 1.58zM26.571 22.617c1.475 0 2.168-0.569 2.773-2.295l2.656-7.533h-1.537l-1.781 5.82h-0.031l-1.781-5.82h-1.581l2.561 7.173-0.137 0.436c-0.231 0.739-0.605 1.023-1.275 1.023-0.119 0-0.349-0.013-0.444-0.025v1.183c0.088 0.025 0.463 0.037 0.577 0.039z"></path>
</symbol>
<symbol id="icon-facebook" viewBox="0 0 32 32">
<path fill="#1877f2" style="fill: var(--color2, #1877f2)" d="M31.997 15.999c0-8.836-7.163-15.999-15.999-15.999s-15.999 7.163-15.999 15.999c0 7.985 5.851 14.604 13.499 15.804v-11.18h-4.062v-4.625h4.062v-3.525c0-4.010 2.389-6.225 6.043-6.225 1.75 0 3.581 0.313 3.581 0.313v3.937h-2.017c-1.987 0-2.607 1.233-2.607 2.498v3.001h4.437l-0.709 4.625h-3.728v11.18c7.649-1.2 13.499-7.819 13.499-15.804z"></path>
</symbol>
<symbol id="icon-instagram" viewBox="0 0 32 32">
<path fill="#e4405f" style="fill: var(--color3, #e4405f)" d="M16 0c-4.347 0-4.889 0.020-6.596 0.096-1.704 0.080-2.864 0.348-3.884 0.744-1.052 0.408-1.945 0.956-2.835 1.845s-1.439 1.781-1.845 2.835c-0.396 1.020-0.665 2.18-0.744 3.884-0.080 1.707-0.096 2.249-0.096 6.596s0.020 4.889 0.096 6.596c0.080 1.703 0.348 2.864 0.744 3.884 0.408 1.051 0.956 1.945 1.845 2.835 0.889 0.888 1.781 1.439 2.835 1.845 1.021 0.395 2.181 0.665 3.884 0.744 1.707 0.080 2.249 0.096 6.596 0.096s4.889-0.020 6.596-0.096c1.703-0.080 2.864-0.349 3.884-0.744 1.051-0.408 1.945-0.957 2.835-1.845 0.888-0.889 1.439-1.78 1.845-2.835 0.395-1.020 0.665-2.181 0.744-3.884 0.080-1.707 0.096-2.249 0.096-6.596s-0.020-4.889-0.096-6.596c-0.080-1.703-0.349-2.865-0.744-3.884-0.408-1.052-0.957-1.945-1.845-2.835-0.889-0.889-1.78-1.439-2.835-1.845-1.020-0.396-2.181-0.665-3.884-0.744-1.707-0.080-2.249-0.096-6.596-0.096zM16 2.88c4.271 0 4.78 0.021 6.467 0.095 1.56 0.073 2.407 0.332 2.969 0.553 0.749 0.289 1.28 0.636 1.843 1.195 0.559 0.56 0.905 1.092 1.195 1.841 0.219 0.563 0.48 1.409 0.551 2.969 0.076 1.688 0.093 2.195 0.093 6.467s-0.020 4.78-0.099 6.467c-0.081 1.56-0.341 2.407-0.561 2.969-0.299 0.749-0.639 1.28-1.199 1.843-0.559 0.559-1.099 0.905-1.84 1.195-0.56 0.219-1.42 0.48-2.98 0.551-1.699 0.076-2.199 0.093-6.479 0.093-4.281 0-4.781-0.020-6.479-0.099-1.561-0.081-2.421-0.341-2.981-0.561-0.759-0.299-1.28-0.639-1.839-1.199-0.561-0.559-0.92-1.099-1.2-1.84-0.22-0.56-0.479-1.42-0.56-2.98-0.060-1.68-0.081-2.199-0.081-6.459 0-4.261 0.021-4.781 0.081-6.481 0.081-1.56 0.34-2.419 0.56-2.979 0.28-0.76 0.639-1.28 1.2-1.841 0.559-0.559 1.080-0.919 1.839-1.197 0.56-0.221 1.401-0.481 2.961-0.561 1.7-0.060 2.2-0.080 6.479-0.080zM16 7.784c-4.54 0-8.216 3.68-8.216 8.216 0 4.54 3.68 8.216 8.216 8.216 4.54 0 8.216-3.68 8.216-8.216 0-4.54-3.68-8.216-8.216-8.216zM16 21.333c-2.947 0-5.333-2.387-5.333-5.333s2.387-5.333 5.333-5.333 5.333 2.387 5.333 5.333-2.387 5.333-5.333 5.333zM26.461 7.46c0 1.060-0.861 1.92-1.92 1.92-1.060 0-1.92-0.861-1.92-1.92s0.861-1.919 1.92-1.919c1.057-0.001 1.92 0.86 1.92 1.919z"></path>
</symbol>
<symbol id="icon-visa" viewBox="0 0 32 32">
<path fill="#142787" style="fill: var(--color4, #142787)" d="M23.26 11.497c-0.516-0.195-1.32-0.401-2.32-0.401-2.56 0-4.367 1.291-4.38 3.14-0.016 1.36 1.285 2.125 2.268 2.581 1.009 0.467 1.347 0.76 1.344 1.18-0.007 0.636-0.807 0.924-1.549 0.924-1.021 0-1.581-0.143-2.441-0.5l-0.319-0.148-0.361 2.131c0.621 0.26 1.741 0.483 2.9 0.5 2.721 0 4.5-1.281 4.521-3.252 0.021-1.084-0.68-1.907-2.161-2.584-0.899-0.44-1.459-0.735-1.459-1.181 0-0.395 0.479-0.816 1.479-0.816 0.86-0.013 1.461 0.172 1.94 0.364l0.24 0.108 0.361-2.059zM29.904 11.271h-2c-0.623 0-1.088 0.169-1.361 0.788l-3.847 8.712h2.721l0.544-1.427 3.32 0.003c0.081 0.333 0.32 1.424 0.32 1.424h2.399zM12.88 11.191h2.591l-1.62 9.505h-2.592l1.621-9.508zM6.295 16.429l0.269 1.32 2.535-6.479h2.745l-4.081 9.487h-2.739l-2.24-8.035c-0.047-0.137-0.104-0.231-0.24-0.316-0.757-0.396-1.604-0.719-2.544-0.943l0.033-0.2h4.175c0.565 0.021 1.021 0.2 1.177 0.805l0.909 4.364zM26.705 17.399l1.033-2.659c-0.013 0.027 0.213-0.549 0.344-0.907l0.177 0.82 0.599 2.743h-2.153z"></path>
</symbol>
<symbol id="icon-visualstudiocode" viewBox="0 0 32 32">
<path fill="#007acc" style="fill: var(--color5, #007acc)" d="M30.867 3.449l-6.587-3.169c-0.253-0.124-0.55-0.197-0.864-0.197-0.55 0-1.049 0.223-1.409 0.584v0l-12.613 11.507-5.493-4.171c-0.221-0.169-0.501-0.271-0.805-0.271-0.346 0-0.661 0.132-0.897 0.348l-1.762 1.602c-0.269 0.245-0.436 0.596-0.436 0.987s0.167 0.741 0.434 0.984l0.001 0.001 4.764 4.347-4.764 4.347c-0.268 0.245-0.435 0.596-0.435 0.985s0.168 0.742 0.435 0.986l0.001 0.001 1.764 1.601c0.236 0.215 0.551 0.347 0.896 0.347 0.304 0 0.584-0.102 0.808-0.273l-0.003 0.002 5.493-4.171 12.613 11.507c0.36 0.361 0.858 0.584 1.408 0.584 0.314 0 0.611-0.073 0.876-0.203l-0.012 0.005 6.589-3.169c0.675-0.331 1.131-1.013 1.131-1.801 0-0.001 0-0.001 0-0.002v0-21.495c0-0 0-0 0-0 0-0.789-0.457-1.472-1.122-1.797l-0.012-0.005zM24.005 23.264l-9.571-7.264 9.571-7.264z"></path>
</symbol>
<symbol id="icon-chevron-down" viewBox="0 0 20 20">
<path d="M4.516 7.548c0.436-0.446 1.043-0.481 1.576 0l3.908 3.747 3.908-3.747c0.533-0.481 1.141-0.446 1.574 0 0.436 0.445 0.408 1.197 0 1.615-0.406 0.418-4.695 4.502-4.695 4.502-0.217 0.223-0.502 0.335-0.787 0.335s-0.57-0.112-0.789-0.335c0 0-4.287-4.084-4.695-4.502s-0.436-1.17 0-1.615z"></path>
</symbol>
<symbol id="icon-chevron-small-down" viewBox="0 0 20 20">
<path d="M13.418 7.859c0.271-0.268 0.709-0.268 0.978 0s0.272 0.701 0 0.969l-3.908 3.83c-0.27 0.268-0.707 0.268-0.979 0l-3.908-3.83c-0.27-0.267-0.27-0.701 0-0.969s0.709-0.268 0.978 0l3.421 3.141 3.418-3.141z"></path>
</symbol>
<symbol id="icon-chevron-thin-down" viewBox="0 0 20 20">
<path d="M17.418 6.109c0.272-0.268 0.709-0.268 0.979 0s0.271 0.701 0 0.969l-7.908 7.83c-0.27 0.268-0.707 0.268-0.979 0l-7.908-7.83c-0.27-0.268-0.27-0.701 0-0.969s0.709-0.268 0.979 0l7.419 7.141 7.418-7.141z"></path>
</symbol>
<symbol id="icon-youtube2" viewBox="0 0 80 32">
<path d="M10.75 5.294c0.007-0.027 0.011-0.046 0.012-0.056l0.033-0.236-1.48-0.008c-1.337-0.008-1.746 0-1.783 0.034-0.018 0.016-0.479 1.77-1.302 4.946-0.392 1.515-0.723 2.725-0.734 2.689s-0.481-1.766-1.044-3.843c-0.563-2.078-1.034-3.789-1.048-3.803-0.019-0.019-1.812-0.028-3.263-0.016-0.21 0.002-0.327-0.41 1.876 6.598 0.305 0.97 0.762 2.344 1.015 3.052 0.292 0.817 0.5 1.448 0.642 1.974 0.251 1.002 0.26 1.63 0.205 2.363-0.063 0.847-0.073 6.826-0.011 6.926 0.047 0.077 2.851 0.112 3.116 0.040 0.042-0.012 0.071-0.053 0.090-0.279 0.066-0.194 0.071-0.968 0.071-4.18v-4.103l0.179-0.566c0.117-0.37 0.413-1.344 0.656-2.163s0.538-1.801 0.654-2.18c1.057-3.447 2.067-6.838 2.094-7.032l0.022-0.158z"></path>
<path d="M26.441 10.27l-0.001 0.214-0.033 0-0.019 5.906-0.018 5.726-0.458 0.467c-0.513 0.522-0.925 0.722-1.297 0.629-0.405-0.102-0.395 0.056-0.429-6.712l-0.031-6.23h-2.947v0.214h-0.034v6.759c0 7.242-0 7.237 0.367 7.965 0.293 0.579 0.719 0.861 1.45 0.958h0c0.962 0.128 2-0.308 2.962-1.244l0.418-0.407v0.701c0 0.606 0.017 0.706 0.127 0.737 0.18 0.050 2.412 0.053 2.653 0.004l0.2-0.041v-0.207l0.034-0.007v-15.472l-2.944 0.039z"></path>
<path d="M18.965 13.323c-0.279-1.198-0.802-2.004-1.664-2.561-1.353-0.875-2.897-0.967-4.331-0.259-1.045 0.516-1.717 1.372-2.065 2.628-0.041 0.15-0.072 0.275-0.095 0.463-0.088 0.443-0.099 1.105-0.122 4.186-0.035 4.748 0.019 5.313 0.614 6.391 0.583 1.058 1.794 1.833 3.112 1.993 0.397 0.048 1.201-0.027 1.663-0.155 1.051-0.291 2.058-1.122 2.504-2.065 0.192-0.407 0.309-0.691 0.379-1.208 0.13-0.707 0.14-1.849 0.14-4.762-0-3.715-0.012-4.121-0.136-4.651zM15.604 23c-0.247 0.188-0.679 0.27-1.031 0.195-0.271-0.058-0.636-0.482-0.748-0.869-0.14-0.482-0.151-7.187-0.030-8.502 0.199-0.658 0.756-1.002 1.364-0.838 0.474 0.128 0.716 0.424 0.854 1.046 0.103 0.461 0.115 1.035 0.093 4.414-0.014 2.241-0.022 3.336-0.096 3.924-0.074 0.371-0.197 0.47-0.407 0.63z"></path>
<path d="M71.887 16.692h1.424l-0.023-1.29c-0.022-1.183-0.039-1.319-0.198-1.64-0.249-0.507-0.617-0.731-1.201-0.731-0.701 0-1.146 0.339-1.356 1.036-0.089 0.296-0.183 2.334-0.116 2.51 0.038 0.098 0.241 0.116 1.469 0.116z"></path>
<path d="M62.369 13.757c-0.19-0.383-0.543-0.571-0.954-0.556-0.319 0.011-0.674 0.146-1.015 0.407l-0.254 0.193v9.269l0.254 0.193c0.576 0.439 1.209 0.532 1.644 0.241 0.172-0.115 0.285-0.274 0.372-0.527 0.114-0.329 0.124-0.75 0.109-4.649-0.015-4.064-0.024-4.303-0.157-4.57z"></path>
<path d="M80.027 9.582c-0.284-3.401-0.509-4.505-1.211-5.923-0.929-1.878-2.272-2.868-4.184-3.086-1.478-0.168-7.041-0.405-12.189-0.52-8.912-0.198-23.564 0.183-25.436 0.662-0.865 0.221-1.513 0.597-2.188 1.269-1.183 1.177-1.887 2.865-2.17 5.2-0.647 5.331-0.66 11.773-0.037 17.297 0.268 2.376 0.82 3.92 1.857 5.192 0.647 0.794 1.761 1.469 2.758 1.67 0.7 0.141 4.201 0.337 9.3 0.521 0.76 0.027 2.771 0.074 4.47 0.105 3.541 0.063 10.051 0.026 13.772-0.079 2.504-0.070 7.069-0.255 7.922-0.321 0.24-0.019 0.796-0.054 1.236-0.079 1.477-0.083 2.417-0.393 3.3-1.086 1.142-0.897 2.027-2.556 2.4-4.501 0.354-1.84 0.59-5.118 0.638-8.839 0.040-3.109-0.013-4.787-0.238-7.482zM44.54 8.35l-1.656 0.020-0.073 17.661-1.435 0.018c-1.11 0.015-1.447-0.001-1.474-0.073-0.019-0.051-0.042-4.032-0.052-8.849l-0.018-8.758-3.234-0.041v-2.76l9.557 0.039 0.041 2.721-1.656 0.020zM54.694 18.472v7.595h-2.616v-0.799c0-0.601-0.023-0.799-0.093-0.799-0.051 0-0.288 0.198-0.527 0.441-0.517 0.526-1.13 0.949-1.653 1.145-1.083 0.405-2.112 0.169-2.551-0.586-0.401-0.691-0.409-0.845-0.409-8.010v-6.58h2.614l0.020 6.196c0.019 6.088 0.022 6.2 0.168 6.448 0.193 0.329 0.488 0.417 0.956 0.288 0.276-0.076 0.464-0.21 0.911-0.654l0.563-0.561v-11.717h2.616v7.595zM64.899 24.982c-0.23 0.513-0.744 1.016-1.165 1.14-1.099 0.324-1.98 0.060-2.998-0.897-0.316-0.297-0.61-0.538-0.654-0.538-0.053 0-0.082 0.233-0.082 0.69v0.69h-2.616v-20.495h2.616v3.343c0 1.839 0.025 3.343 0.054 3.343s0.306-0.244 0.613-0.541c0.707-0.683 1.298-0.981 2.049-1.038 1.338-0.101 2.135 0.587 2.501 2.16 0.114 0.491 0.125 1.051 0.125 5.596-0 5.537-0.001 5.56-0.443 6.546zM75.968 21.943c-0.023 0.57-0.092 1.223-0.154 1.454-0.364 1.349-1.332 2.304-2.732 2.696-1.885 0.527-3.96-0.337-4.788-1.994-0.465-0.93-0.481-1.116-0.481-5.662 0-3.707 0.013-4.162 0.132-4.667 0.336-1.431 1.168-2.357 2.578-2.871 0.408-0.149 0.835-0.225 1.261-0.234 1.521-0.031 3.031 0.787 3.663 2.119 0.427 0.899 0.48 1.283 0.522 3.816l0.039 2.271-5.578 0.039-0.020 1.526c-0.029 2.153 0.116 2.815 0.697 3.207 0.489 0.329 1.24 0.305 1.649-0.055 0.383-0.337 0.491-0.698 0.529-1.753l0.034-0.927h2.694l-0.043 1.036z"></path>
</symbol>
</defs>
</svg>
